# xmcd
#
# Track frame offsets:
#	150
#	11837
#	26649
#	39597
#	55793
#	70080
#	84944
#	98850
#	116988
#	134464
#	153080
#	166037
#
# Disc length: 2352 seconds
#
# Revision: 1
# Processed by: cddbd v1.5.2PL0 Copyright (c) Steve Scherf et al.
# Submitted via: audiograbber 1.83.01
#
DISCID=92092e0c
DTITLE=Paul Seils - My Kind Of Country
DYEAR=2011
DGENRE=Country
TTITLE0=South Australian Opal
TTITLE1=Cattle Camp Reverie
TTITLE2=Half A Dozen Stubbies
TTITLE3=What I Am
TTITLE4=Weekend Country Music Stars
TTITLE5=Down And Out Down Under
TTITLE6=Saddle Boy
TTITLE7=Camooweal
TTITLE8=Grandad's FJ Ute
TTITLE9=Where Country Is
TTITLE10=Old Fashioned
TTITLE11=Catchin' Yellowbelly
EXTD=
EXTT0=
EXTT1=
EXTT2=
EXTT3=
EXTT4=
EXTT5=
EXTT6=
EXTT7=
EXTT8=
EXTT9=
EXTT10=
EXTT11=
PLAYORDER=
